<svg xmlns="http://www.w3.org/2000/svg" viewBox="0 0 91.18 40"><title>SUPR-Wirecard-Logo-Black</title><path id="supr_s" d="M12.21,17.65S15,20.15,18,20.15c1.22,0,2.54-.47,2.54-1.93C20.55,15.34,9.64,15.44,9.64,8,9.64,3.52,13.4.57,18.21.57,23.43.57,26,3.31,26,3.31L23.49,8.16A9.24,9.24,0,0,0,18.14,6c-1.22,0-2.57.54-2.57,1.9,0,3,10.91,2.51,10.91,10.16,0,4-3.08,7.52-8.54,7.52a12.51,12.51,0,0,1-8.84-3.46Z" transform="translate(-0.67 -0.57)" style="fill:#000"/><path id="supr_u" d="M28.76,1h5.93V16.29c0,2.54,1.66,3.9,4.2,3.9s4.2-1.35,4.2-3.9V1H49V16.29c0,5.45-4,9.32-10.1,9.32s-10.16-3.86-10.16-9.32Z" transform="translate(-0.67 -0.57)" style="fill:#000"/><path id="supr_p" d="M51.84,1H61.9c4.71,0,7.89,3.46,7.89,8.33s-3.18,8.4-7.89,8.4H57.77V25.2H51.84Zm8.84,11.66c2.07,0,3.08-1.39,3.08-3.32s-1-3.25-3-3.25h-3v6.57Z" transform="translate(-0.67 -0.57)" style="fill:#000"/><path id="supr_r" d="M72.23,1h8.44a12.54,12.54,0,0,1,4.71.58c2.74,1.05,4.47,3.52,4.47,7a7.38,7.38,0,0,1-3.63,6.61v.07a13.86,13.86,0,0,1,.91,1.46l4.71,8.47H85.24L80.94,17H78.16V25.2H72.23Zm8.5,11a2.77,2.77,0,0,0,3.08-3c0-1.83-.68-2.91-3.66-2.91h-2V12Z" transform="translate(-0.67 -0.57)" style="fill:#000"/><path id="by_wirecard" d="M.67,30.23h.7v3.42h0a2.16,2.16,0,0,1,2.1-1.33c1.82,0,2.66,1.47,2.66,3.14s-.84,3.14-2.66,3.14a2.1,2.1,0,0,1-2.1-1.33h0V38.4H.67ZM3.47,33c-1.54,0-2.1,1.33-2.1,2.52S1.93,38,3.47,38s2-1.33,2-2.52S4.87,33,3.47,33m5.66,5.38-.28.7c-.28.56-.42.91-1,.91-.14,0-.35-.07-.49-.07v.63a1.2,1.2,0,0,0,.56.07c.91,0,1.12-.28,1.54-1.26L12,32.46h-.7l-1.82,5.1-2-5.1H6.75Zm8.25.14h.77l1.47-5h.07l1.47,5h.77l1.89-6H23l-1.47,5.1H21.5L20,32.46h-.77l-1.47,5.1h0l-1.54-5.1h-.77Zm7.27-8.25h.7v1.19h-.7Zm0,2.24h.7V38.4h-.7Zm2.1,5.94h.7V35.26a2.07,2.07,0,0,1,2.24-2.17v-.7a2.13,2.13,0,0,0-2.24,1.47h0v-1.4h-.7ZM31,35.68a2.14,2.14,0,0,0,2,2.38,1.88,1.88,0,0,0,1.89-1.54h.7A2.46,2.46,0,0,1,33,38.68c-1.89,0-2.66-1.47-2.66-3.14s.77-3.14,2.66-3.14,2.66,1.68,2.59,3.35H31ZM34.92,35A1.93,1.93,0,0,0,33,33a2.13,2.13,0,0,0-2,2.1Zm6.64-.7a2.31,2.31,0,0,0-2.45-2,2.85,2.85,0,0,0-2.8,3.14,2.85,2.85,0,0,0,2.8,3.14,2.44,2.44,0,0,0,2.45-2.31h-.7A1.81,1.81,0,0,1,39.11,38,2.25,2.25,0,0,1,37,35.47,2.25,2.25,0,0,1,39.11,33a1.6,1.6,0,0,1,1.68,1.4Zm1-.07c.07-1.4,1-2,2.45-2,1,0,2.17.35,2.17,1.89v3.14a.37.37,0,0,0,.42.42.26.26,0,0,0,.21-.07v.63c-.14,0-.28.07-.49.07-.77,0-.84-.42-.84-1h0a2.26,2.26,0,0,1-2.17,1.19c-1.12,0-2-.56-2-1.75,0-1.68,1.61-1.75,3.21-1.89.63-.07.91-.14.91-.84,0-1-.7-1.26-1.54-1.26a1.42,1.42,0,0,0-1.61,1.4h-.7Zm3.84.91h0a1.73,1.73,0,0,1-.63.28c-1.26.21-2.8.21-2.8,1.4a1.26,1.26,0,0,0,1.33,1.19,1.93,1.93,0,0,0,2.1-1.89Zm2.52,3.21h.7V35.26a2.07,2.07,0,0,1,2.24-2.17v-.7a2.13,2.13,0,0,0-2.24,1.47h0v-1.4h-.7Zm8.88,0h-.7V37.28h0A2.34,2.34,0,0,1,55,38.61c-1.82,0-2.66-1.47-2.66-3.14s.84-3.14,2.66-3.14a2.12,2.12,0,0,1,2.1,1.33h0V30.23h.7ZM55,38c1.54,0,2.1-1.33,2.1-2.52S56.51,33,55,33s-2,1.33-2,2.52S53.58,38,55,38" transform="translate(-0.67 -0.57)" style="fill:#a8a8aa"/></svg>
